<?xml version="1.0" encoding="utf-8"?>
<!-- Generator: Adobe Illustrator 28.0.0, SVG Export Plug-In . SVG Version: 6.00 Build 0)  -->
<svg version="1.1" id="Layer_1" xmlns="http://www.w3.org/2000/svg" xmlns:xlink="http://www.w3.org/1999/xlink" x="0px" y="0px"
	 viewBox="0 0 182 44" style="enable-background:new 0 0 182 44;" xml:space="preserve">
<style type="text/css">
	.st0{fill:none;stroke:#FFFFFF;stroke-width:1.4595;stroke-miterlimit:10;}
	.st1{fill:none;stroke:#FFFFFF;stroke-width:1.4595;stroke-linejoin:round;stroke-miterlimit:10;}
	.st2{fill:none;stroke:#FFFFFF;stroke-width:1.4595;stroke-linecap:round;stroke-miterlimit:10;}
	.st3{fill:#FFFFFF;}
</style>
<g>
	<ellipse transform="matrix(0.9239 -0.3827 0.3827 0.9239 -4.2477 11.2557)" class="st0" cx="26.2" cy="16.3" rx="13.5" ry="13.5"/>
	<path class="st0" d="M23.8,3c0,0-7.1,14.8,0.9,26.9"/>
	<path class="st0" d="M28.8,3c0,0,7.1,14.8-0.9,26.9"/>
	<path class="st0" d="M36.3,7.8c0,0-11.4,7.1-20.7-0.9"/>
	<path class="st0" d="M15.6,24.6c0,0,11.4-7.1,20.7,0.9"/>
	<path class="st0" d="M12.3,16.3c9.1,0,18.3,0,27.4,0"/>
	<path class="st1" d="M47.6,30.2H9.7c-3.3,0.5-5.7,3.3-5.6,6.3c0.1,2.4,1.8,4.6,4.2,5.4l40,0.3c-2.9-0.3-5.3-2.7-5.5-5.6
		C42.7,33.6,44.6,30.9,47.6,30.2z"/>
	<line class="st2" x1="11.2" y1="32.5" x2="40.7" y2="32.5"/>
</g>
<g>
	<path class="st3" d="M59.2,15.9H64l5.5,17.6h-4.2L63,24.5c-0.5-1.8-1-3.8-1.4-5.7h-0.1c-0.4,1.9-0.9,3.9-1.4,5.7l-2.3,8.9h-4.1
		L59.2,15.9z M57.3,26.2h8.5v3.1h-8.5V26.2z"/>
	<path class="st3" d="M70.3,24.8c0-5.8,3.9-9.2,8.3-9.2c2.3,0,4.1,1.1,5.3,2.3l-2.1,2.6C80.9,19.5,80,19,78.7,19
		c-2.4,0-4.3,2.1-4.3,5.7c0,3.6,1.7,5.7,4.3,5.7c1.4,0,2.6-0.7,3.4-1.6l2.1,2.5c-1.5,1.7-3.4,2.6-5.7,2.6
		C74,33.8,70.3,30.7,70.3,24.8z"/>
	<path class="st3" d="M90.1,15.9h4.8l5.5,17.6h-4.2l-2.3-8.9c-0.5-1.8-1-3.8-1.4-5.7h-0.1c-0.4,1.9-0.9,3.9-1.4,5.7l-2.3,8.9h-4.1
		L90.1,15.9z M88.2,26.2h8.5v3.1h-8.5V26.2z"/>
	<path class="st3" d="M102.1,15.9h5c5.4,0,8.8,2.7,8.8,8.7s-3.5,8.9-8.6,8.9h-5.2V15.9z M106.8,30.2c3,0,5-1.5,5-5.7
		c0-4.2-2-5.5-5-5.5h-0.8v11.2H106.8z"/>
	<path class="st3" d="M119.2,15.9h11v3.3h-7v3.5h6v3.3h-6v4.1h7.3v3.3h-11.3V15.9z"/>
	<path class="st3" d="M134,15.9h4.3l2.9,7.8c0.4,1,0.7,2.2,1,3.2h0.1c0.4-1.1,0.7-2.2,1-3.2l2.8-7.8h4.3v17.6h-3.6V27
		c0-1.7,0.3-4.3,0.5-6h-0.1l-1.4,4.2l-2.5,6.7h-2.2l-2.5-6.7l-1.4-4.2h-0.1c0.2,1.7,0.5,4.3,0.5,6v6.5H134V15.9z"/>
	<path class="st3" d="M154.6,15.9h4v17.6h-4V15.9z"/>
	<path class="st3" d="M161.9,24.6c0-5.7,3.2-9,8-9c4.7,0,8,3.3,8,9c0,5.7-3.2,9.2-8,9.2C165.1,33.8,161.9,30.3,161.9,24.6z
		 M173.8,24.6c0-3.5-1.5-5.6-3.9-5.6c-2.4,0-3.9,2.1-3.9,5.6s1.5,5.8,3.9,5.8C172.3,30.3,173.8,28.1,173.8,24.6z"/>
</g>
</svg>
